# xmcd
#
# Track frame offsets:
# 183
# 36390
# 63445
# 86190
# 100060
# 129773
#
# Disc length: 2273 seconds
#
# Revision: 0
# Processed by: cddbd v1.4PL0 Copyright (c) Steve Scherf et al.
# Submitted via: Axialis_AX_CDPlayer 2.6
#
DISCID=4908df06
DTITLE=Freddie King - Live in Nancy, 1975 Vol.2
DYEAR=1900
DGENRE=
TTITLE0=Got my mojo working
TTITLE1=Sweet home Chicago
TTITLE2=Wee baby blues
TTITLE3=The danger zone
TTITLE4=Feeling alright
TTITLE5=You're the one
EXTD=
EXTT0=
EXTT1=
EXTT2=
EXTT3=
EXTT4=
EXTT5=
PLAYORDER=
